<?xml version="1.0" encoding="UTF-8"?>
<svg xmlns="http://www.w3.org/2000/svg" xmlns:xlink="http://www.w3.org/1999/xlink" viewBox="0 0 798.53 450">
  <defs>
    <style>
      .cls-1 {
        fill: url(#linear-gradient);
      }

      .cls-1, .cls-2, .cls-3, .cls-4, .cls-5, .cls-6, .cls-7, .cls-8, .cls-9, .cls-10, .cls-11 {
        stroke-width: 0px;
      }

      .cls-2 {
        fill: url(#linear-gradient-6);
      }

      .cls-3 {
        fill: url(#linear-gradient-9);
      }

      .cls-3, .cls-4, .cls-6, .cls-7, .cls-8, .cls-10, .cls-11 {
        mix-blend-mode: screen;
      }

      .cls-3, .cls-7, .cls-8, .cls-10 {
        opacity: .5;
      }

      .cls-12 {
        isolation: isolate;
      }

      .cls-4 {
        fill: url(#linear-gradient-4);
      }

      .cls-5 {
        fill: none;
      }

      .cls-6 {
        fill: url(#radial-gradient);
      }

      .cls-7 {
        fill: url(#linear-gradient-3);
      }

      .cls-8 {
        fill: url(#linear-gradient-5);
      }

      .cls-9 {
        fill: url(#linear-gradient-2);
      }

      .cls-13 {
        clip-path: url(#clippath);
      }

      .cls-10 {
        fill: url(#linear-gradient-7);
      }

      .cls-11 {
        fill: url(#linear-gradient-8);
      }
    </style>
    <clipPath id="clippath">
      <rect id="SVGID" class="cls-5" width="798.53" height="450" transform="translate(798.53 450) rotate(180)"/>
    </clipPath>
    <linearGradient id="linear-gradient" x1="738.69" y1="-114.42" x2="21.33" y2="602.93" gradientTransform="translate(798.53 450) rotate(-180)" gradientUnits="userSpaceOnUse">
      <stop offset="0" stop-color="#ff38ff"/>
      <stop offset=".52" stop-color="#0070ff"/>
      <stop offset=".61" stop-color="#006bfa"/>
      <stop offset=".7" stop-color="#005fee"/>
      <stop offset=".79" stop-color="#004bd9"/>
      <stop offset=".88" stop-color="#002fbc"/>
      <stop offset=".97" stop-color="#000b97"/>
      <stop offset="1" stop-color="#00008c"/>
    </linearGradient>
    <linearGradient id="linear-gradient-2" x1="357.93" y1="227.65" x2="629.96" y2="-120.41" gradientTransform="matrix(1,0,0,1,0,0)" xlink:href="#linear-gradient"/>
    <linearGradient id="linear-gradient-3" x1="604.25" y1="229.67" x2="941.05" y2="-208.51" gradientTransform="matrix(1,0,0,1,0,0)" xlink:href="#linear-gradient"/>
    <linearGradient id="linear-gradient-4" x1="-571.57" y1="5104.33" x2="-234.78" y2="4666.15" gradientTransform="translate(2540.4 4554.07) rotate(153.5)" xlink:href="#linear-gradient"/>
    <linearGradient id="linear-gradient-5" x1="216.46" y1="83.38" x2="1078.07" y2="83.38" gradientTransform="matrix(1,0,0,1,0,0)" xlink:href="#linear-gradient"/>
    <linearGradient id="linear-gradient-6" x1="2406.6" y1="4509.24" x2="2654.96" y2="4191.47" gradientTransform="translate(-798.43 5306.04) rotate(-139.4)" xlink:href="#linear-gradient"/>
    <linearGradient id="linear-gradient-7" x1="1687.54" y1="5006.44" x2="1907.77" y2="4719.91" gradientTransform="translate(453.5 5590.12) rotate(-165.39)" xlink:href="#linear-gradient"/>
    <linearGradient id="linear-gradient-8" x1="1480.22" y1="366.52" x2="1700.46" y2="79.99" gradientTransform="translate(-1383.87 943.76) rotate(-26.5)" xlink:href="#linear-gradient"/>
    <linearGradient id="linear-gradient-9" x1="1481.64" y1="4959.97" x2="2045.05" y2="4959.97" gradientTransform="translate(293.56 5579.92) rotate(-162.2)" xlink:href="#linear-gradient"/>
    <radialGradient id="radial-gradient" cx="-425.64" cy="456.4" fx="-425.64" fy="456.4" r="339.66" gradientTransform="translate(-351.65 98.35) rotate(-90)" gradientUnits="userSpaceOnUse">
      <stop offset="0" stop-color="#fff"/>
      <stop offset=".05" stop-color="#e2e2e2"/>
      <stop offset=".16" stop-color="#adadad"/>
      <stop offset=".26" stop-color="#7f7f7f"/>
      <stop offset=".37" stop-color="#585858"/>
      <stop offset=".48" stop-color="#383838"/>
      <stop offset=".6" stop-color="#1f1f1f"/>
      <stop offset=".72" stop-color="#0d0d0d"/>
      <stop offset=".85" stop-color="#030303"/>
      <stop offset="1" stop-color="#000"/>
    </radialGradient>
  </defs>
  <g class="cls-12">
    <g id="Layer_1" data-name="Layer 1">
      <g class="cls-13">
        <rect class="cls-1" width="798.53" height="450" transform="translate(798.53 450) rotate(180)"/>
        <path class="cls-9" d="M304.31,29.74c7.74,18.13,12.02,38.09,15.13,57.66,5.12,32.22,7.96,65.42,21.31,95.19,13.35,29.77,40.21,56.16,72.79,57.9,28.73,1.53,54.86-15.89,76.8-34.5,21.94-18.61,43.2-39.8,70.62-48.5,55.61-17.64,117.11,21.49,173.11,5.11,35.24-10.31,61.06-41.05,77.27-74,14.44-29.35,23.03-62.14,20.62-94.76-2.41-32.62-16.55-64.98-41.62-85.99-37.88-31.76-93.57-32.89-141.1-19.32-47.54,13.57-90.43,39.65-136.28,58.13-45.85,18.48-98.39,29.08-144.24,10.61-21.75-8.76-40.63-23.54-62.24-32.62-17.03-7.16-38.12-10.69-55.64-3.11-21.8,9.44-8.89,32.76,3.16,46.3,9.4,10.57,20.96,19.06,30.35,29.64,8.5,9.58,14.95,20.54,19.95,32.26Z"/>
        <path class="cls-7" d="M365.42,55.82c13.51,51.07,51.26,95.15,99.64,116.35,81.93,35.9,180.55,6.12,263.87,38.66,34.93,13.64,64.8,37.39,94.63,60.11,29.83,22.72,61.04,45.16,97.1,55.47,36.06,10.3,78.37,6.34,105.92-19.1,32.28-29.81,35.91-81.13,21.44-122.61-14.47-41.48-43.54-75.91-70.32-110.74-26.78-34.83-52.57-72.86-58.47-116.4-4.08-30.09,1.69-60.51,3.88-90.79,2.18-30.28.16-62.71-17.2-87.62-20.94-30.03-59.02-42.26-94.81-49.98-83.64-18.04-172.71-21.62-253.24,7.28-48.38,17.36-92.79,47.53-125.21,87.58-29.7,36.69-49.33,86.79-63.93,131.49-10.52,32.22-11.97,67.49-3.29,100.31Z"/>
        <path class="cls-4" d="M1065.91-220.06c-34.87-39.68-88.32-62.28-141.08-59.67-89.34,4.42-164.32,75.07-253.4,83.13-37.35,3.38-74.67-4.55-111.51-11.58-36.84-7.03-74.78-13.19-111.65-6.32-36.87,6.87-72.96,29.29-86.27,64.35-15.59,41.08,4.06,88.62,35.52,119.3C428.98-.17,470.35,17.67,509.86,36.89c39.51,19.22,79.55,41.75,104.26,78.09,17.07,25.11,25.48,54.91,37.04,82.98,11.56,28.08,27.83,56.19,54.49,70.74,32.14,17.54,71.67,11.49,107.15,2.43,82.9-21.17,164.21-57.71,223.39-119.5,35.55-37.12,61.84-83.94,72.98-134.25,10.21-46.08,5.42-99.68-1.45-146.19-4.96-33.53-19.4-65.75-41.81-91.25Z"/>
        <path class="cls-8" d="M218.77,52.11c6.03,37.18,27.22,73.97,61.77,88.95,36.61,15.88,78.82,4.6,116.63-8.17,37.81-12.77,78.19-27.05,116.68-16.52,31.25,8.55,55.99,32.33,76.22,57.63,20.23,25.3,37.61,53.19,61.47,75.1,27.73,25.47,63.7,41.82,101.12,45.95,18.3,2.02,39.07.25,51.45-13.38,9.72-10.71,11.88-26.14,18.73-38.89,9.85-18.34,29.4-30.25,49.87-34.02,20.47-3.77,41.74-.14,61.34,6.85,19.69,7.02,38.14,17.39,58.21,23.22,20.07,5.83,43.06,6.56,60.57-4.86,23.95-15.63,29.91-49.54,21.89-77-8.02-27.45-26.84-50.2-44.41-72.77-17.56-22.57-34.84-47.06-38.79-75.39-3.41-24.48,3.5-49.9-2.37-73.91-10.47-42.86-59.72-66.85-103.73-63.63-44.01,3.22-83.6,26.78-120.92,50.32-37.32,23.54-75.82,48.28-119.53,54.34-49.02,6.8-97.97-10.85-143.08-31.21-45.11-20.36-89.89-44.07-138.96-50.52-42.6-5.6-85.85,4.83-117.73,34.17-15.17,13.95-20.69,22.37-24.1,43.26-4.34,26.54-6.65,53.75-2.32,80.46Z"/>
        <path class="cls-2" d="M228.74,485.27c5.41-17.16,14.3-33.55,23.77-48.96,15.59-25.38,33.36-50.08,41.79-78.64,8.43-28.57,5.5-62.82-16.05-83.38-19.01-18.13-47.47-21.58-73.73-21.72s-53.59,1.92-77.77-8.35c-49.03-20.82-68.41-84.48-116.96-106.41-30.55-13.8-66.71-7.83-97.53,5.38-27.45,11.76-52.88,29.39-70.6,53.43-17.72,24.04-27.14,54.87-22.25,84.34,7.39,44.52,45.31,78.39,86.33,97.23,41.01,18.84,86.24,26.25,129,40.69,42.76,14.44,85.47,38.31,106.29,78.35,9.87,18.99,14.18,40.45,23.75,59.59,7.55,15.08,20.07,30.06,36.72,35.21,20.72,6.41,25.63-17.43,25.32-33.97-.24-12.91-3.21-25.66-3.43-38.58-.2-11.69,1.84-23.11,5.34-34.21Z"/>
        <path class="cls-10" d="M205.49,469.32c-.13-34.54-16.74-68.66-43.86-90.05-45.92-36.23-113.24-33.65-160.59-67.97-19.86-14.39-34.84-34.35-49.97-53.64-15.13-19.3-31.18-38.64-52.3-51.11-21.12-12.46-48.54-16.93-70.17-5.38-25.34,13.54-36.1,45.41-33.78,74.05,2.31,28.64,15.03,55.22,26.23,81.67,11.2,26.46,21.25,54.77,17.8,83.3-2.38,19.71-11.05,38.01-17.42,56.81-6.38,18.8-10.44,39.65-3.56,58.28,8.3,22.46,30.38,36.48,51.75,47.26,49.95,25.21,105.72,42.16,161.45,37.15,33.48-3.01,66.55-14.78,93.67-34.77,24.84-18.32,45.53-46.78,62.13-72.66,11.97-18.65,18.71-40.73,18.63-62.93Z"/>
        <path class="cls-11" d="M-86.1,579.31c22.8,25.94,57.76,40.73,92.25,39.02,58.42-2.89,107.45-49.09,165.7-54.36,24.42-2.21,48.83,2.98,72.92,7.57,24.09,4.59,48.9,8.62,73.01,4.13,24.11-4.49,47.71-19.15,56.41-42.08,10.19-26.86-2.66-57.95-23.23-78.01-20.57-20.06-47.63-31.72-73.46-44.29-25.83-12.57-52.02-27.3-68.18-51.06-11.16-16.42-16.66-35.9-24.22-54.26-7.56-18.36-18.2-36.75-35.63-46.26-21.02-11.47-46.87-7.52-70.06-1.59-54.21,13.84-107.38,37.74-146.08,78.14-23.25,24.27-40.44,54.89-47.72,87.79-6.68,30.13-3.55,65.18.95,95.6,3.24,21.93,12.68,42.99,27.34,59.67Z"/>
        <path class="cls-3" d="M391.39,423.47c3.68-24.35-2.16-51.49-20.68-67.73-19.62-17.21-48.15-18.62-74.25-18.23-26.1.39-54.09,1.22-75.95-13.04-17.74-11.57-28.4-31.32-35.93-51.12-7.54-19.8-12.79-40.63-23.26-59.05-12.17-21.4-31.3-38.77-53.77-48.82-10.99-4.92-24.28-7.97-34.71-1.95-8.19,4.72-12.63,13.9-19.43,20.47-9.8,9.45-24.35,12.96-37.85,11.22-13.5-1.74-26.01-8.26-36.82-16.53-10.85-8.31-20.27-18.45-31.6-26.09-11.33-7.64-25.5-12.69-38.68-9.08-18.04,4.95-28.53,24.87-29.02,43.56-.49,18.7,6.68,36.62,13.1,54.18,6.42,17.56,12.28,36.26,9.08,54.69-2.77,15.93-12.15,30.37-13.3,46.49-2.05,28.78,23.82,53.56,51.86,60.35,28.04,6.79,57.4.04,85.35-7.16,27.94-7.19,56.86-14.9,85.28-9.94,31.88,5.57,58.83,26.34,82.84,48.03,24.01,21.69,47.16,45.41,76.42,59.23,25.4,12,54.42,14.15,80.13,2.26,12.23-5.66,17.35-9.79,23.65-22.12,8.01-15.66,14.89-32.14,17.53-49.63Z"/>
        <circle class="cls-6" cx="104.76" cy="523.99" r="339.66"/>
      </g>
    </g>
  </g>
</svg>